<?xml version="1.0" standalone="no"?>
<!DOCTYPE svg PUBLIC "-//W3C//DTD SVG 20010904//EN"
 "http://www.w3.org/TR/2001/REC-SVG-20010904/DTD/svg10.dtd">
<svg version="1.0" xmlns="http://www.w3.org/2000/svg"
 width="1024.000000pt" height="1024.000000pt" viewBox="0 0 1024.000000 1024.000000"
 preserveAspectRatio="xMidYMid meet">
<metadata>
Created by potrace 1.14, written by Peter Selinger 2001-2017
</metadata>
<g transform="translate(0.000000,1024.000000) scale(0.100000,-0.100000)"
fill="#000000" stroke="none">
<path d="M2563 8067 c-3 -4 -12 -7 -21 -5 -10 1 -21 0 -27 -3 -5 -3 -37 -11
-70 -19 -70 -14 -182 -44 -209 -56 -14 -5 -17 -4 -12 4 4 7 2 20 -4 29 -11 17
-11 17 -6 1 8 -26 -4 -51 -18 -39 -8 6 -17 6 -26 -1 -12 -8 -12 -9 3 -4 39 12
13 -16 -37 -42 -72 -36 -184 -113 -220 -151 -25 -26 -32 -29 -45 -18 -13 10
-14 10 -5 -3 8 -12 3 -26 -21 -62 -18 -27 -35 -45 -40 -40 -5 4 -6 2 -2 -3 6
-12 -58 -147 -66 -139 -3 3 -5 -1 -4 -8 0 -7 -3 -32 -8 -56 l-8 -43 -46 1
c-25 1 -52 1 -58 1 -26 -2 -79 -76 -114 -157 -20 -46 -40 -80 -44 -76 -5 4 -5
1 -1 -6 9 -15 -12 -74 -24 -67 -5 3 -6 -4 -3 -15 3 -11 1 -20 -4 -20 -5 0 -10
-11 -11 -25 -1 -19 4 -26 23 -31 14 -3 25 -10 25 -16 0 -5 3 -7 8 -5 4 3 20 0
35 -7 l29 -11 -45 -33 c-25 -17 -50 -32 -56 -32 -6 0 -11 -4 -11 -10 0 -5 -4
-10 -9 -10 -17 0 -75 -64 -102 -110 -14 -25 -31 -44 -38 -42 -7 1 -10 -2 -6
-8 9 -14 -14 -42 -28 -33 -6 4 -8 0 -4 -10 4 -12 1 -17 -11 -18 -10 0 -12 -3
-5 -6 9 -3 8 -11 -4 -30 l-17 -25 -24 28 c-17 21 -21 23 -13 7 6 -12 16 -25
21 -28 6 -3 10 -13 10 -21 0 -9 -5 -12 -12 -8 -7 4 -8 3 -4 -4 7 -12 -40 -111
-58 -124 -6 -4 -8 -8 -3 -8 4 0 0 -17 -9 -37 -9 -21 -23 -59 -31 -85 -9 -26
-20 -45 -24 -42 -5 3 -6 -2 -3 -11 8 -20 -4 -67 -15 -60 -5 3 -7 -5 -3 -17 3
-14 1 -19 -6 -14 -7 4 -10 2 -6 -7 2 -7 -6 -45 -20 -83 -13 -38 -34 -109 -46
-159 -12 -49 -24 -97 -27 -105 -6 -16 -9 -27 -11 -48 -1 -8 -7 -10 -14 -6 -10
5 -10 4 -2 -5 15 -16 6 -53 -10 -44 -8 5 -8 3 0 -8 8 -10 7 -32 -7 -84 -37
-144 -19 -562 30 -687 6 -16 8 -28 5 -28 -3 0 7 -16 22 -35 15 -20 24 -38 21
-42 -4 -3 5 -15 19 -25 14 -11 23 -25 21 -32 -2 -6 4 -15 13 -21 66 -41 80
-51 80 -57 0 -5 -8 -8 -19 -8 -10 0 -24 -7 -31 -15 -7 -9 -20 -13 -29 -10 -8
3 -12 3 -8 -1 8 -8 -31 -54 -46 -54 -5 0 -15 7 -21 16 -10 13 -12 13 -12 -5 0
-11 5 -17 11 -14 5 3 -14 -16 -43 -42 -28 -25 -64 -67 -78 -91 -14 -24 -31
-41 -36 -37 -7 3 -8 1 -4 -5 4 -6 -2 -28 -13 -49 -19 -36 -29 -62 -28 -73 0
-3 -5 -16 -12 -29 -10 -19 -15 -21 -22 -10 -5 8 -9 9 -9 4 0 -6 5 -16 11 -22
12 -12 1 -86 -12 -77 -5 3 -6 10 -3 16 4 7 2 8 -5 4 -8 -6 -9 -11 -1 -20 11
-14 -21 -232 -33 -220 -3 4 -6 -478 -7 -1070 l0 -1076 2453 0 2453 0 11 40 c5
22 7 40 2 40 -4 0 -5 55 -3 123 3 67 4 143 4 169 -1 27 3 48 8 48 5 0 7 -12 4
-27 -2 -16 -2 -26 1 -23 3 3 7 19 10 37 4 24 2 30 -9 26 -8 -3 -14 0 -14 6 0
6 5 11 10 11 6 0 10 5 10 11 0 5 -5 7 -10 4 -7 -4 -10 121 -10 384 1 215 4
391 8 391 4 0 14 -5 22 -10 13 -8 12 -10 -2 -10 -10 0 -18 -4 -18 -10 0 -5 5
-10 10 -10 6 0 10 -10 10 -22 0 -12 3 -18 7 -14 4 4 8 17 8 28 0 27 18 33 39
13 9 -9 16 -12 16 -7 0 17 62 0 67 -19 3 -11 14 -19 25 -19 32 0 58 -19 52
-38 -5 -14 -4 -14 4 -3 6 8 23 15 39 16 15 1 36 5 46 9 13 6 24 2 40 -15 12
-13 21 -27 19 -32 -1 -5 1 -6 6 -3 13 8 54 -33 46 -46 -4 -6 -3 -8 3 -5 6 4
21 -5 33 -18 13 -14 20 -25 15 -25 -5 0 8 -16 29 -35 21 -19 42 -35 47 -35 8
0 13 -23 10 -43 -1 -5 3 -5 9 -2 14 9 52 -24 43 -38 -3 -6 -1 -7 6 -3 7 5 23
-3 38 -18 14 -14 30 -26 34 -26 9 0 14 36 10 77 -1 13 4 23 11 23 9 0 10 3 2
8 -17 11 -25 97 -11 111 9 10 8 11 -4 6 -11 -4 -18 0 -22 12 -3 10 -10 33 -16
51 l-10 32 32 -22 c41 -28 49 -40 34 -51 -8 -6 -7 -7 3 -4 8 2 14 10 12 17 -1
7 7 4 20 -7 58 -46 77 -67 71 -77 -4 -6 0 -5 9 2 9 7 18 9 20 5 1 -4 30 -22
64 -39 42 -21 70 -30 91 -27 30 5 31 7 22 36 -5 18 -9 33 -9 34 0 1 8 0 18 -3
13 -4 12 -2 -3 7 -11 6 -22 13 -24 15 -2 2 2 12 10 21 12 16 12 17 -2 6 -13
-10 -18 -7 -33 17 -9 17 -14 35 -10 42 4 7 3 8 -4 4 -7 -4 -13 -2 -13 3 -4 34
-20 71 -30 71 -5 0 -9 9 -9 19 0 11 -4 23 -10 26 -13 8 -13 35 -1 35 5 0 22
-5 38 -11 15 -6 53 -11 83 -10 30 0 82 -3 116 -7 60 -8 60 -8 56 16 -3 14 -13
27 -23 29 -10 3 -17 9 -14 13 3 4 -3 7 -13 6 -9 0 -16 5 -14 12 1 8 -2 11 -7
8 -5 -4 -13 0 -18 8 -4 7 -29 27 -55 43 -26 17 -44 34 -40 38 4 5 2 5 -4 2
-14 -8 -104 48 -104 64 0 7 -3 9 -6 6 -4 -4 -33 21 -65 55 -32 34 -56 64 -53
67 3 3 9 0 13 -8 6 -10 10 -9 14 4 5 10 3 14 -5 9 -8 -5 -9 0 -5 15 5 19 3 21
-11 9 -9 -7 -4 3 12 22 27 33 55 57 66 58 12 0 102 25 192 53 54 17 103 27
109 23 7 -4 9 -3 6 3 -4 6 19 16 56 24 34 7 64 14 67 15 3 0 17 6 31 12 23 9
77 25 129 38 8 2 35 9 60 15 25 6 51 12 58 12 6 0 12 5 12 10 0 5 11 7 25 5
15 -3 22 -1 18 5 -4 6 2 8 15 5 14 -4 20 -2 15 5 -4 6 2 8 15 5 12 -4 20 -2
16 3 -3 5 3 10 13 11 28 2 36 4 66 17 16 6 44 12 62 14 18 1 31 5 30 8 -4 5
87 33 110 34 6 0 16 4 23 9 7 4 25 5 40 2 19 -5 23 -4 13 3 -11 7 -3 12 30 21
24 6 73 19 108 30 36 10 69 16 74 13 6 -3 7 -1 3 5 -5 8 1 12 17 12 14 0 43 7
66 15 22 8 41 12 41 10 0 -2 16 3 35 11 43 18 51 18 35 -1 -7 -8 -17 -12 -23
-8 -6 4 -7 1 -2 -6 5 -9 14 -6 34 13 15 14 39 26 53 26 14 0 54 9 89 19 80 24
121 35 134 36 6 0 16 4 24 9 9 6 12 5 7 -2 -3 -6 1 -9 11 -7 10 1 23 -2 29 -7
7 -5 14 -3 17 5 4 10 -2 13 -19 11 -38 -4 -28 11 16 22 28 8 42 8 50 0 8 -8
11 -7 8 4 -2 10 9 16 37 21 22 3 73 17 113 31 39 13 72 21 72 17 0 -4 -6 -9
-12 -12 -7 -3 -3 -4 8 -4 12 1 20 6 17 13 -4 10 33 27 62 28 6 1 13 6 17 11 4
6 8 2 8 -9 0 -16 2 -16 20 5 10 13 19 20 20 15 0 -5 8 -2 17 5 9 8 14 9 10 3
-4 -8 4 -11 27 -11 23 1 32 5 29 14 -5 14 6 20 49 27 14 2 35 9 47 15 11 6 31
12 45 13 13 1 22 6 20 10 -3 4 8 8 25 8 16 0 33 5 37 11 3 6 20 9 36 7 16 -3
32 0 35 5 4 6 1 7 -7 2 -9 -5 -11 -4 -6 4 4 7 13 10 19 8 6 -2 43 7 82 21 38
13 95 30 125 38 30 8 63 17 73 20 11 4 17 0 17 -10 0 -9 3 -16 8 -17 46 -4 74
-17 67 -29 -4 -6 -12 -7 -18 -4 -7 4 -8 3 -4 -1 10 -12 38 -15 31 -4 -3 5 7 9
21 9 27 0 57 8 228 62 110 35 120 45 118 127 0 25 5 52 12 60 10 12 9 13 -2 6
-11 -6 -13 -4 -8 8 3 10 3 17 -2 17 -9 0 -37 60 -33 73 1 4 -1 6 -5 5 -13 -5
-53 28 -45 36 4 4 3 7 -3 6 -20 -4 -36 0 -31 9 3 4 -29 0 -72 -11 -42 -10 -85
-16 -94 -14 -9 2 -18 0 -20 -4 -2 -5 -16 -11 -33 -13 -67 -12 -101 -20 -111
-28 -6 -5 -13 -7 -15 -4 -3 2 -6 -7 -7 -21 -1 -14 -5 -31 -9 -37 -4 -7 -8 -14
-8 -17 -3 -20 -18 -50 -26 -50 -5 0 -9 -7 -9 -16 0 -12 -7 -15 -25 -12 -15 3
-22 1 -18 -5 4 -6 -2 -8 -15 -5 -12 4 -20 2 -17 -3 6 -8 -71 -26 -78 -18 -2 2
-11 -3 -20 -12 -16 -16 -125 -47 -179 -51 -15 -1 -25 -5 -22 -9 2 -4 -3 -9
-11 -13 -8 -3 -17 0 -21 6 -5 7 -11 6 -19 -5 -6 -9 -27 -19 -45 -22 -19 -3
-39 -9 -45 -13 -22 -16 -83 -32 -99 -26 -11 4 -22 -1 -31 -12 -8 -11 -15 -15
-15 -11 0 4 -10 3 -22 -4 -18 -10 -20 -9 -14 7 4 14 1 12 -13 -5 -13 -17 -25
-22 -40 -18 -11 3 -19 2 -16 -3 3 -4 -2 -11 -11 -14 -9 -4 -13 -2 -8 5 3 6 -5
3 -20 -6 -14 -10 -35 -15 -46 -12 -10 3 -20 2 -22 -2 -6 -12 -223 -79 -227
-69 -1 5 -8 3 -15 -5 -6 -8 -28 -18 -48 -21 -32 -6 -37 -4 -33 12 2 11 -2 19
-10 19 -8 0 -11 -5 -7 -11 10 -17 11 -36 1 -37 -5 -1 -17 -2 -26 -2 -10 -1
-20 -4 -23 -8 -10 -13 -110 -40 -121 -33 -8 4 -9 3 -5 -5 9 -15 -67 -50 -117
-53 -19 -2 -33 -6 -31 -10 4 -6 -81 -30 -116 -33 -9 0 -21 -4 -28 -9 -6 -4
-12 -4 -12 1 0 4 -4 3 -8 -2 -7 -11 -93 -37 -127 -39 -11 0 -26 -7 -33 -13 -7
-7 -23 -13 -34 -13 -28 0 -132 -33 -136 -42 -2 -5 -13 -8 -24 -8 -11 0 -66
-14 -121 -30 -56 -17 -124 -37 -151 -45 -26 -8 -52 -12 -57 -9 -5 3 -9 0 -9
-5 0 -6 -8 -11 -17 -11 -18 0 -139 -34 -182 -51 -16 -7 -28 -6 -37 2 -12 9
-13 9 -9 -3 4 -11 -10 -19 -56 -32 -34 -9 -64 -15 -66 -12 -2 2 -16 -2 -31
-10 -20 -10 -29 -11 -41 -1 -12 9 -13 9 -8 0 7 -11 -47 -33 -117 -48 -6 -1
-22 -7 -36 -12 -13 -5 -36 -10 -50 -9 -14 1 -29 -4 -35 -11 -5 -6 -24 -14 -42
-16 -17 -3 -36 -8 -42 -11 -5 -3 -26 10 -47 29 -20 19 -41 35 -46 35 -5 0 -11
7 -14 15 -3 8 -16 17 -27 21 -33 10 -102 76 -99 93 3 13 2 13 -14 0 -14 -11
-16 -11 -10 0 6 10 4 12 -10 7 -12 -4 -30 3 -48 19 -16 14 -33 25 -38 25 -4 0
-8 7 -8 15 0 9 -6 12 -16 8 -17 -6 -87 54 -78 69 3 5 2 7 -3 6 -4 -2 -10 2
-12 7 -3 6 -13 19 -24 30 -45 47 -67 83 -61 99 3 9 1 16 -6 16 -6 0 -8 -5 -4
-12 4 -7 -2 -5 -14 6 -12 10 -19 23 -15 29 3 6 1 7 -5 3 -11 -7 -38 32 -34 47
1 5 -1 6 -6 3 -5 -3 -18 8 -30 23 -16 22 -18 31 -9 42 10 11 9 11 -3 2 -12 -9
-23 -7 -48 9 -17 11 -29 25 -25 31 3 5 1 7 -4 4 -6 -4 -17 0 -24 9 -10 12 -10
17 0 23 10 6 9 10 -4 14 -9 4 -13 3 -10 -3 8 -13 4 -13 -40 6 -45 19 -115 73
-112 86 1 6 -6 12 -17 13 -10 2 -30 14 -45 27 -14 13 -45 37 -68 52 -24 16
-43 33 -43 37 0 5 -5 9 -11 9 -6 0 -29 15 -52 33 -23 19 -50 37 -61 41 -12 4
-16 12 -11 24 5 13 3 14 -6 5 -8 -8 -25 -3 -68 22 -31 19 -55 39 -53 45 1 6
-2 9 -8 5 -13 -8 -52 14 -45 26 4 5 -1 9 -9 9 -9 0 -16 4 -16 8 0 18 14 20 39
5 23 -13 24 -13 7 0 -22 19 -16 30 26 48 18 7 42 21 52 31 11 10 26 18 33 18
7 0 13 5 13 11 0 5 4 8 9 5 5 -4 11 -3 13 2 1 4 28 28 58 52 30 25 67 59 83
75 19 19 27 24 23 12 -3 -11 -2 -16 5 -12 6 4 8 14 5 22 -7 18 33 75 47 66 6
-3 7 -1 3 5 -8 14 33 74 45 66 5 -3 6 2 3 10 -5 13 16 42 77 103 22 21 55 21
42 -1 -4 -6 0 -6 9 2 13 10 17 10 21 0 4 -9 6 -8 6 3 1 12 14 15 71 15 39 -1
70 3 70 8 0 5 3 6 7 3 3 -4 12 -2 19 4 8 6 21 9 29 5 9 -3 14 -2 11 3 -7 10
18 34 26 25 3 -3 6 1 5 8 -1 30 4 49 11 44 4 -2 14 0 22 6 13 8 13 9 0 5 -8
-2 -21 2 -28 9 -10 11 -10 14 0 15 7 0 25 2 41 3 15 1 27 -2 27 -7 0 -4 5 -5
12 -1 11 7 47 12 116 16 17 1 32 4 32 8 0 3 14 11 30 18 17 8 49 31 72 52 23
22 46 36 51 33 6 -3 7 -1 3 6 -4 6 -11 9 -16 6 -5 -3 -3 10 5 29 14 34 17 106
4 106 -4 0 -9 9 -12 20 -4 17 -2 20 15 14 15 -4 19 -2 16 7 -3 8 -11 14 -19
15 -46 3 -50 5 -43 17 6 10 4 10 -7 0 -7 -7 -17 -13 -22 -13 -4 0 -5 6 -1 13
5 7 1 6 -10 -3 -10 -8 -25 -15 -34 -16 -9 -2 -4 7 13 20 23 19 29 31 28 63 0
40 1 41 38 47 42 7 122 46 154 76 12 11 24 20 28 20 9 0 57 50 57 60 0 5 8 13
18 19 9 5 15 11 12 13 -2 2 2 13 11 25 9 13 19 20 23 16 4 -4 4 0 1 9 -4 9 -1
27 6 40 7 13 14 30 15 38 11 67 14 130 20 377 5 218 3 293 -7 335 -7 29 -12
56 -11 61 1 4 -3 7 -8 7 -6 0 -10 6 -10 14 0 7 -7 19 -15 26 -9 7 -14 19 -11
27 3 8 2 12 -3 9 -9 -6 -68 64 -63 76 1 5 -4 7 -11 5 -6 -1 -11 3 -10 9 1 7
-5 11 -15 10 -9 0 -16 5 -14 12 1 8 -2 11 -8 7 -13 -8 -52 19 -42 30 4 5 2 5
-5 1 -6 -3 -30 1 -52 10 -22 9 -80 21 -128 28 -62 8 -87 16 -85 25 1 7 -2 9
-8 6 -6 -4 -19 0 -28 8 -9 9 -20 16 -25 16 -4 1 -24 8 -45 16 -50 22 -124 37
-185 39 l-51 1 -13 60 c-8 33 -17 90 -22 126 -5 36 -16 83 -26 105 -23 48 -90
136 -99 127 -3 -3 -6 -1 -6 5 0 7 -7 12 -15 12 -8 0 -15 5 -15 11 0 5 -5 7
-12 3 -8 -5 -9 -2 -4 12 4 10 4 15 0 11 -4 -4 -14 -1 -23 6 -14 11 -14 10 -3
-5 11 -14 0 -11 -50 10 -34 15 -65 30 -66 34 -2 5 -7 6 -12 3 -4 -3 -42 6 -84
20 -42 14 -83 25 -92 25 -9 0 -12 5 -8 12 4 6 3 8 -3 5 -9 -6 -139 9 -153 18
-6 3 -325 18 -365 16 -5 0 -82 -3 -170 -5 -88 -3 -176 -8 -195 -11 -146 -23
-342 -91 -483 -166 -32 -18 -40 -19 -55 -7 -15 12 -16 11 -4 -4 10 -13 10 -17
0 -21 -7 -2 -38 21 -68 52 -30 31 -70 67 -88 79 -18 13 -29 28 -26 34 4 7 2 8
-4 4 -7 -4 -27 4 -44 18 -18 13 -36 25 -40 26 -4 0 -27 9 -50 20 -59 26 -184
57 -300 76 -104 16 -357 24 -365 11z m-916 -998 c-1 -11 -9 -25 -18 -30 -14
-7 -16 -5 -12 11 3 11 10 20 15 20 5 0 6 5 3 10 -3 6 -2 10 4 10 5 0 9 -9 8
-21z m7853 -2594 c0 -8 -2 -15 -4 -15 -2 0 -6 7 -10 15 -3 8 -1 15 4 15 6 0
10 -7 10 -15z m-290 -89 c0 -3 -4 -8 -10 -11 -5 -3 -10 -1 -10 4 0 6 5 11 10
11 6 0 10 -2 10 -4z m-150 -58 c0 -4 -7 -8 -15 -8 -8 0 -15 4 -15 8 0 5 7 9
15 9 8 0 15 -4 15 -9z m-70 -18 c0 -5 -3 -10 -7 -11 -5 0 -17 -2 -28 -4 -20
-4 -20 -4 -1 11 23 16 36 18 36 4z m-125 -40 c-3 -5 -14 -10 -23 -9 -14 0 -13
2 3 9 27 11 27 11 20 0z m-180 -58 c-3 -3 -11 0 -18 7 -9 10 -8 11 6 5 10 -3
15 -9 12 -12z m-35 -2 c0 -5 -4 -10 -9 -10 -6 0 -13 5 -16 10 -3 6 1 10 9 10
9 0 16 -4 16 -10z m-202 -65 c-9 -9 -68 -13 -62 -4 3 5 19 9 36 9 17 0 29 -2
26 -5z m-98 -29 c0 -2 -7 -6 -15 -10 -8 -3 -15 -1 -15 4 0 6 7 10 15 10 8 0
15 -2 15 -4z m-43 -12 c-3 -3 -12 -4 -19 -1 -8 3 -5 6 6 6 11 1 17 -2 13 -5z
m-77 -26 c0 -4 -9 -8 -21 -8 -11 0 -18 4 -15 8 3 5 12 9 21 9 8 0 15 -4 15 -9z
m-125 -27 c3 -5 1 -12 -5 -16 -5 -3 -10 1 -10 9 0 18 6 21 15 7z m-1155 -345
c0 -2 -7 -7 -16 -10 -8 -3 -12 -2 -9 4 6 10 25 14 25 6z m-245 -66 c3 -5 1
-10 -4 -10 -6 0 -11 5 -11 10 0 6 2 10 4 10 3 0 8 -4 11 -10z m-465 -134 c0
-3 -4 -8 -10 -11 -5 -3 -10 -1 -10 4 0 6 5 11 10 11 6 0 10 -2 10 -4z"/>
<path d="M3265 7999 c-4 -6 -5 -12 -2 -15 2 -3 7 2 10 11 7 17 1 20 -8 4z"/>
<path d="M2050 7919 c-22 -18 -22 -19 -3 -10 12 6 25 16 28 21 9 15 3 12 -25
-11z"/>
<path d="M3687 7899 c7 -7 15 -10 18 -7 3 3 -2 9 -12 12 -14 6 -15 5 -6 -5z"/>
<path d="M1807 7767 c-3 -8 0 -14 7 -14 7 0 13 6 13 14 0 7 -4 13 -8 13 -4 0
-9 -6 -12 -13z"/>
<path d="M5396 7748 c3 -5 10 -6 15 -3 13 9 11 12 -6 12 -8 0 -12 -4 -9 -9z"/>
<path d="M1763 7645 c0 -8 4 -12 9 -9 5 3 6 10 3 15 -9 13 -12 11 -12 -6z"/>
<path d="M6253 7115 c0 -8 4 -12 9 -9 5 3 6 10 3 15 -9 13 -12 11 -12 -6z"/>
<path d="M960 6171 c0 -6 4 -13 10 -16 6 -3 7 1 4 9 -7 18 -14 21 -14 7z"/>
<path d="M6050 5804 c0 -8 6 -11 15 -8 8 4 15 9 15 13 0 4 -7 8 -15 8 -8 0
-15 -6 -15 -13z"/>
<path d="M6055 5480 c-3 -6 1 -7 9 -4 18 7 21 14 7 14 -6 0 -13 -4 -16 -10z"/>
<path d="M5450 5252 c0 -4 10 -9 22 -9 18 -2 20 0 8 7 -18 12 -30 13 -30 2z"/>
<path d="M5570 5256 c0 -2 8 -10 18 -17 15 -13 16 -12 3 4 -13 16 -21 21 -21
13z"/>
<path d="M5657 5243 c-10 -9 -9 -23 1 -23 5 0 9 7 9 15 0 17 -1 18 -10 8z"/>
<path d="M823 5209 c-2 -23 3 -25 10 -4 4 8 3 16 -1 19 -4 3 -9 -4 -9 -15z"/>
<path d="M830 5171 c-7 -15 -7 -22 2 -27 7 -4 10 -4 6 1 -4 4 -3 16 3 26 5 11
7 19 5 19 -3 0 -10 -9 -16 -19z"/>
<path d="M839 5128 c-5 -18 -6 -38 -1 -34 7 8 12 36 6 36 -2 0 -4 -1 -5 -2z"/>
<path d="M827 5069 c7 -7 15 -10 18 -7 3 3 -2 9 -12 12 -14 6 -15 5 -6 -5z"/>
<path d="M4943 4793 c4 -3 1 -13 -6 -22 -11 -14 -10 -14 5 -2 16 12 16 31 1
31 -4 0 -3 -3 0 -7z"/>
<path d="M4894 4748 c-4 -7 -2 -14 6 -16 8 -3 24 -15 37 -28 13 -13 23 -19 23
-14 0 6 0 13 0 18 0 4 -3 7 -7 7 -19 1 -53 27 -48 36 4 5 4 9 1 9 -3 0 -8 -5
-12 -12z"/>
<path d="M5098 4733 c7 -3 16 -2 19 1 4 3 -2 6 -13 5 -11 0 -14 -3 -6 -6z"/>
<path d="M9449 4738 c-5 -18 -6 -38 -1 -34 7 8 12 36 6 36 -2 0 -4 -1 -5 -2z"/>
<path d="M1012 4711 c7 -11 16 -17 20 -15 5 3 2 12 -6 20 -21 20 -28 17 -14
-5z"/>
<path d="M9496 4698 c3 -5 10 -6 15 -3 13 9 11 12 -6 12 -8 0 -12 -4 -9 -9z"/>
<path d="M977 4682 c3 -7 9 -10 12 -5 3 4 10 11 15 15 4 4 -1 6 -12 5 -12 -1
-18 -6 -15 -15z"/>
<path d="M956 4653 c-6 -14 -5 -15 5 -6 7 7 10 15 7 18 -3 3 -9 -2 -12 -12z"/>
<path d="M885 4620 c-3 -6 1 -7 9 -4 18 7 21 14 7 14 -6 0 -13 -4 -16 -10z"/>
<path d="M5116 4577 c3 -8 11 -14 19 -14 20 0 19 4 -5 17 -15 8 -18 8 -14 -3z"/>
<path d="M9415 4569 c-11 -16 -1 -19 13 -3 7 8 8 14 3 14 -5 0 -13 -5 -16 -11z"/>
<path d="M5260 4541 c0 -6 4 -12 8 -15 5 -3 9 1 9 9 0 8 -4 15 -9 15 -4 0 -8
-4 -8 -9z"/>
<path d="M9145 4539 c-4 -6 -4 -13 -1 -16 3 -4 6 -1 6 6 0 7 5 9 10 6 6 -3 10
-1 10 4 0 14 -17 14 -25 0z"/>
<path d="M9190 4480 c0 -5 5 -10 10 -10 6 0 10 5 10 10 0 6 -4 10 -10 10 -5 0
-10 -4 -10 -10z"/>
<path d="M735 4410 c-3 -5 -2 -10 4 -10 5 0 13 5 16 10 3 6 2 10 -4 10 -5 0
-13 -4 -16 -10z"/>
<path d="M8778 4413 c7 -3 16 -2 19 1 4 3 -2 6 -13 5 -11 0 -14 -3 -6 -6z"/>
<path d="M8810 4399 c0 -5 5 -7 10 -4 6 3 10 8 10 11 0 2 -4 4 -10 4 -5 0 -10
-5 -10 -11z"/>
<path d="M8843 4395 c0 -8 4 -12 9 -9 4 3 8 9 8 15 0 5 -4 9 -8 9 -5 0 -9 -7
-9 -15z"/>
<path d="M5415 4390 c-4 -6 -11 -8 -16 -5 -5 4 -9 2 -9 -3 0 -6 11 -9 24 -8
14 0 22 6 19 14 -6 15 -10 15 -18 2z"/>
<path d="M8650 4385 c7 -9 15 -13 17 -11 7 7 -7 26 -19 26 -6 0 -6 -6 2 -15z"/>
<path d="M8766 4372 c-3 -4 4 -9 15 -9 23 -2 25 3 4 10 -8 4 -16 3 -19 -1z"/>
<path d="M9470 4376 c0 -2 8 -10 18 -17 15 -13 16 -12 3 4 -13 16 -21 21 -21
13z"/>
<path d="M672 4343 c1 -10 -1 -23 -4 -29 -4 -6 -1 -11 6 -11 7 0 12 12 12 29
0 15 -4 28 -8 28 -5 0 -8 -8 -6 -17z"/>
<path d="M9780 4356 c0 -2 7 -7 16 -10 8 -3 12 -2 9 4 -6 10 -25 14 -25 6z"/>
<path d="M9406 4322 c-2 -4 4 -9 15 -9 10 -1 19 2 19 8 0 11 -27 12 -34 1z"/>
<path d="M641 4274 c0 -11 3 -14 6 -6 3 7 2 16 -1 19 -3 4 -6 -2 -5 -13z"/>
<path d="M9235 4270 c-2 -3 7 -7 21 -8 13 -1 24 2 24 6 0 9 -40 11 -45 2z"/>
<path d="M661 4244 c0 -11 3 -14 6 -6 3 7 2 16 -1 19 -3 4 -6 -2 -5 -13z"/>
<path d="M5564 4246 c-19 -14 -18 -15 3 -13 12 0 20 4 17 8 -2 4 2 10 8 12 7
3 8 6 2 6 -5 1 -19 -5 -30 -13z"/>
<path d="M5735 4249 c-4 -6 -4 -13 -1 -16 3 -4 6 -1 6 6 0 7 5 9 12 5 7 -4 8
-3 4 4 -9 15 -13 15 -21 1z"/>
<path d="M8075 4250 c-4 -6 1 -7 11 -3 13 5 15 3 9 -7 -5 -9 -4 -11 4 -6 6 4
9 12 6 17 -8 12 -22 12 -30 -1z"/>
<path d="M8302 4249 c18 -7 33 -7 45 0 14 8 9 10 -27 10 -42 -1 -43 -1 -18
-10z"/>
<path d="M8416 4245 c4 -8 8 -15 10 -15 2 0 4 7 4 15 0 8 -4 15 -10 15 -5 0
-7 -7 -4 -15z"/>
<path d="M9000 4230 c-9 -6 -10 -10 -3 -10 6 0 15 5 18 10 8 12 4 12 -15 0z"/>
<path d="M5656 4218 c3 -5 10 -6 15 -3 13 9 11 12 -6 12 -8 0 -12 -4 -9 -9z"/>
<path d="M5635 4200 c-3 -5 -1 -10 4 -10 6 0 11 5 11 10 0 6 -2 10 -4 10 -3 0
-8 -4 -11 -10z"/>
<path d="M5690 4180 c0 -5 5 -10 11 -10 5 0 7 5 4 10 -3 6 -8 10 -11 10 -2 0
-4 -4 -4 -10z"/>
<path d="M8143 4169 c-2 -19 11 -26 21 -10 3 5 0 14 -7 19 -10 8 -13 6 -14 -9z"/>
<path d="M8076 4158 c3 -5 10 -6 15 -3 13 9 11 12 -6 12 -8 0 -12 -4 -9 -9z"/>
<path d="M8109 4153 c-13 -16 -12 -17 4 -4 16 13 21 21 13 21 -2 0 -10 -8 -17
-17z"/>
<path d="M5690 4145 c0 -7 30 -13 34 -7 3 4 -4 9 -15 9 -10 1 -19 0 -19 -2z"/>
<path d="M657 4125 c-4 -8 -2 -17 3 -20 6 -4 10 3 10 14 0 25 -6 27 -13 6z"/>
<path d="M8790 4119 c0 -5 -4 -7 -10 -4 -5 3 -10 1 -10 -4 0 -6 7 -11 15 -11
8 0 15 7 15 15 0 8 -2 15 -5 15 -3 0 -5 -5 -5 -11z"/>
<path d="M5730 4096 c0 -2 7 -6 15 -10 8 -3 15 -1 15 4 0 6 -7 10 -15 10 -8 0
-15 -2 -15 -4z"/>
<path d="M7547 4009 c7 -7 15 -10 18 -7 3 3 -2 9 -12 12 -14 6 -15 5 -6 -5z"/>
<path d="M8227 4006 c-10 -8 -14 -16 -10 -19 5 -3 14 3 21 14 14 22 13 23 -11
5z"/>
<path d="M5780 4001 c0 -5 7 -12 16 -15 14 -5 15 -4 4 9 -14 17 -20 19 -20 6z"/>
<path d="M8320 3980 c-8 -15 -8 -18 3 -14 8 3 14 11 14 19 0 20 -4 19 -17 -5z"/>
<path d="M8140 3980 c-12 -7 -10 -9 7 -7 12 0 19 5 17 9 -6 10 -6 10 -24 -2z"/>
<path d="M8360 3980 c8 -5 20 -10 25 -10 6 0 3 5 -5 10 -8 5 -19 10 -25 10 -5
0 -3 -5 5 -10z"/>
<path d="M5872 3911 c-23 -19 -20 -33 6 -24 10 4 13 2 8 -5 -3 -6 -2 -13 3
-16 5 -4 7 7 4 25 -3 23 -1 29 8 24 8 -5 10 -4 5 3 -9 15 -9 15 -34 -7z"/>
<path d="M5936 3847 c3 -10 9 -15 12 -12 3 3 0 11 -7 18 -10 9 -11 8 -5 -6z"/>
<path d="M7555 3800 c3 -5 8 -10 11 -10 2 0 4 5 4 10 0 6 -5 10 -11 10 -5 0
-7 -4 -4 -10z"/>
<path d="M6116 3738 c15 -21 21 -23 27 -11 5 8 6 17 3 20 -3 4 -6 0 -6 -7 0
-9 -7 -7 -22 6 l-22 19 20 -27z"/>
<path d="M6231 3744 c0 -11 3 -14 6 -6 3 7 2 16 -1 19 -3 4 -6 -2 -5 -13z"/>
<path d="M6150 3709 c0 -5 11 -11 25 -15 14 -3 25 -9 25 -13 0 -4 6 -15 13
-26 11 -14 16 -15 22 -5 6 9 4 11 -5 5 -10 -6 -12 -4 -7 9 4 10 3 15 -3 11 -6
-3 -10 -1 -10 5 0 6 -6 17 -13 24 -14 14 -47 17 -47 5z"/>
<path d="M6439 3353 c-13 -16 -12 -17 4 -4 16 13 21 21 13 21 -2 0 -10 -8 -17
-17z"/>
<path d="M6760 3136 c0 -2 8 -10 18 -17 15 -13 16 -12 3 4 -13 16 -21 21 -21
13z"/>
<path d="M6635 3010 c-3 -6 1 -7 9 -4 18 7 21 14 7 14 -6 0 -13 -4 -16 -10z"/>
<path d="M6685 3010 c-16 -7 -17 -9 -3 -9 9 -1 20 4 23 9 7 11 7 11 -20 0z"/>
<path d="M5630 3000 c0 -6 7 -10 15 -10 8 0 15 2 15 4 0 2 -7 6 -15 10 -8 3
-15 1 -15 -4z"/>
<path d="M6520 3006 c0 -2 8 -10 18 -17 15 -13 16 -12 3 4 -13 16 -21 21 -21
13z"/>
<path d="M5573 2929 c-2 -23 3 -25 10 -4 4 8 3 16 -1 19 -4 3 -9 -4 -9 -15z"/>
<path d="M6336 2833 c-6 -14 -5 -15 5 -6 7 7 10 15 7 18 -3 3 -9 -2 -12 -12z"/>
<path d="M5581 2804 c0 -11 3 -14 6 -6 3 7 2 16 -1 19 -3 4 -6 -2 -5 -13z"/>
<path d="M5582 2760 c0 -14 2 -19 5 -12 2 6 2 18 0 25 -3 6 -5 1 -5 -13z"/>
<path d="M5575 2651 c-3 -5 -2 -12 3 -15 5 -3 9 1 9 9 0 17 -3 19 -12 6z"/>
<path d="M5575 2499 c-4 -6 -5 -12 -2 -15 2 -3 7 2 10 11 7 17 1 20 -8 4z"/>
<path d="M5577 2391 c-4 -17 -3 -21 5 -13 5 5 8 16 6 23 -3 8 -7 3 -11 -10z"/>
<path d="M5585 2359 c-4 -6 -5 -12 -2 -15 2 -3 7 2 10 11 7 17 1 20 -8 4z"/>
<path d="M5573 2085 c0 -8 4 -12 9 -9 5 3 6 10 3 15 -9 13 -12 11 -12 -6z"/>
<path d="M5571 2044 c0 -11 3 -14 6 -6 3 7 2 16 -1 19 -3 4 -6 -2 -5 -13z"/>
<path d="M5573 1955 c0 -8 4 -12 9 -9 5 3 6 10 3 15 -9 13 -12 11 -12 -6z"/>
<path d="M5575 1881 c-3 -5 -2 -12 3 -15 5 -3 9 1 9 9 0 17 -3 19 -12 6z"/>
</g>
</svg>
